<svg width="26" height="26" viewBox="0 0 26 26" fill="none" xmlns="http://www.w3.org/2000/svg">
<g clip-path="url(#clip0_552_3999)">
<path d="M6.60449 0.416347C7.50859 0.606684 8.61431 1.08299 9.94509 1.92089L10.059 1.99262L10.1903 1.96278C12.6184 1.41094 15.1566 1.41094 17.4712 1.96203L17.6073 1.99442L17.7243 1.91788C19.0013 1.08293 20.0954 0.607237 21.0169 0.416578C21.6338 0.288955 22.0829 0.301261 22.4198 0.385477C22.6365 0.458703 22.7854 0.607648 22.8656 0.848248C23.4103 2.26545 23.5178 3.66257 23.1949 5.0618L23.159 5.21723L23.26 5.34068C24.2324 6.52919 24.7623 8.03496 24.7623 9.63684C24.7623 14.7951 22.4821 17.1 18.4806 18.1004L18.1401 18.1855L18.2511 18.5184C18.4568 19.1356 18.5721 19.8847 18.5721 20.5541V24.8309C18.5721 25.3267 18.2674 25.6314 17.7716 25.6314C17.2758 25.6314 16.9711 25.3267 16.9711 24.8309V20.4415C17.0863 19.5397 16.7742 18.7595 16.0881 18.0733C15.8407 17.8259 15.7801 17.5431 15.9036 17.3579L15.9484 17.2564C16.01 17.0104 16.2584 16.8241 16.6363 16.6981C20.9524 16.2594 23.1613 14.3965 23.1613 9.63684C23.1613 8.29099 22.6631 6.98317 21.7286 5.9319C21.5115 5.71399 21.4698 5.42239 21.5689 5.12511C21.9114 4.21234 21.9414 3.25412 21.6884 2.24233L21.6133 1.9417L21.3094 2.00247C20.5393 2.15649 19.5647 2.61512 18.2619 3.51708C18.1109 3.66061 17.9181 3.67814 17.6493 3.58852C15.3356 2.92719 12.8279 2.89412 10.5065 3.48574L10.1415 3.58435C9.84672 3.68229 9.62276 3.66363 9.39814 3.51388C8.23828 2.64336 7.21045 2.1735 6.35533 2.00247L6.05145 1.9417L5.97629 2.24233C5.72335 3.25412 5.75329 4.21234 6.09983 5.13645C6.18197 5.47271 6.16194 5.71414 6.04651 5.83696L5.93613 5.9319C5.00167 6.98317 4.50345 8.29099 4.50345 9.63684C4.50345 14.3965 6.71235 16.2594 11.0977 16.713C11.4044 16.7148 11.6328 16.9224 11.7163 17.2564C11.7984 17.5848 11.7256 17.9243 11.5767 18.0733C10.9725 18.6775 10.6936 19.421 10.6936 20.329V24.7184C10.6936 25.2142 10.389 25.5189 9.89315 25.5189C9.39735 25.5189 9.09267 25.2142 9.09267 24.7184V22.4214L8.71424 22.4845C6.6446 22.8294 5.26532 22.2859 4.02441 21.0052L3.88181 20.8542C3.67021 20.6244 3.6058 20.5474 3.16666 20.0106L2.87286 19.6452C2.7081 19.4427 2.64502 19.3742 2.52591 19.2551C2.274 19.0031 2.0322 18.8447 1.75591 18.7756C1.34841 18.6938 1.05196 18.2087 1.191 17.8611C1.28005 17.4416 1.70857 17.1554 2.04793 17.2322L2.11913 17.2543C3.00597 17.5217 3.49496 17.9408 4.46915 19.0774C5.70591 20.7797 6.65503 21.2873 8.82848 20.8733L9.09267 20.823V20.4415C9.09267 19.7626 9.21006 19.0289 9.40707 18.5364L9.55017 18.1786L9.17341 18.0979C5.22816 17.2525 2.90248 14.7418 2.90248 9.74938C2.90248 8.14751 3.43229 6.64173 4.4047 5.45323L4.51237 5.32163L4.46566 5.15814C4.03762 3.66003 4.14202 2.27672 4.78589 0.881668C4.87933 0.607648 5.02828 0.458703 5.26888 0.378503C5.58308 0.30094 6.00011 0.289109 6.60449 0.416347Z" fill="#A12A30"/>
</g>
<defs>
<clipPath id="clip0_552_3999">
<rect width="26" height="26" fill="white"/>
</clipPath>
</defs>
</svg>
