<svg width="26" height="26" viewBox="0 0 26 26" fill="none" xmlns="http://www.w3.org/2000/svg">
<g clip-path="url(#clip0_552_3994)">
<path d="M0 3.68359V4.67636V21.3242V22.3169H26V21.3242V4.67636V3.68359H0ZM15.8708 13.2447L13.5109 15.6159C13.224 15.8824 12.7751 15.8819 12.5004 15.6271L10.1287 13.2447L10.1495 13.2243L1.58037 4.55026H24.4253L15.85 13.2247L15.8708 13.2447ZM8.89373 13.2312L0.866667 20.9541V5.16689L8.89373 13.2312ZM9.50473 13.8453L11.898 16.2498C12.2053 16.5363 12.5996 16.6801 12.9957 16.6801C13.3956 16.6801 13.7973 16.5332 14.1141 16.2381L16.4957 13.8453L24.3984 21.4503H1.59727L9.50473 13.8453ZM17.1067 13.2317L25.1333 5.16646V20.9541L17.1067 13.2317Z" fill="#A12A30" stroke="#A12A30"/>
</g>
<defs>
<clipPath id="clip0_552_3994">
<rect width="26" height="26" fill="white"/>
</clipPath>
</defs>
</svg>
