<svg width="26" height="26" viewBox="0 0 26 26" fill="none" xmlns="http://www.w3.org/2000/svg">
<g clip-path="url(#clip0_552_3982)">
<path d="M20.0443 21.125H5.96094" stroke="#A12A30" stroke-linecap="round" stroke-linejoin="round"/>
<path d="M12.9974 23.0195C13.0692 23.0195 13.1381 23.0481 13.1889 23.0989C13.2397 23.1496 13.2682 23.2185 13.2682 23.2904C13.2682 23.3622 13.2397 23.4311 13.1889 23.4819C13.1381 23.5327 13.0692 23.5612 12.9974 23.5612C12.9256 23.5612 12.8567 23.5327 12.8059 23.4819C12.7551 23.4311 12.7266 23.3622 12.7266 23.2904C12.7266 23.2185 12.7551 23.1496 12.8059 23.0989C12.8567 23.0481 12.9256 23.0195 12.9974 23.0195Z" stroke="#A12A30" stroke-linecap="round" stroke-linejoin="round"/>
<circle cx="13.0026" cy="23.0221" r="0.541667" fill="#A12A30"/>
<path d="M17.8776 0.542969H8.1276C6.93099 0.542969 5.96094 1.51302 5.96094 2.70964V23.293C5.96094 24.4896 6.93099 25.4596 8.1276 25.4596H17.8776C19.0742 25.4596 20.0443 24.4896 20.0443 23.293V2.70964C20.0443 1.51302 19.0742 0.542969 17.8776 0.542969Z" stroke="#A12A30" stroke-width="2" stroke-linecap="round" stroke-linejoin="round"/>
</g>
<defs>
<clipPath id="clip0_552_3982">
<rect width="26" height="26" fill="white"/>
</clipPath>
</defs>
</svg>
