<svg width="80" height="80" viewBox="0 0 80 80" fill="none" xmlns="http://www.w3.org/2000/svg">

<!--              Технологии             -->

<g id="git">
<g clip-path="url(#clip0_552_3923)">
<rect width="49.9414" height="50.8039" transform="matrix(0.70982 -0.704383 0.710601 0.703595 2.125 35.875)" fill="#A12A30"/>
<path d="M43.596 1.86379L43.5959 1.86367C41.7629 0.0456001 38.7858 0.0452502 36.9499 1.86378C36.9499 1.86382 36.9498 1.86385 36.9498 1.86389L29.9908 8.7618L38.702 17.3965C40.957 16.7556 43.4841 17.3089 45.265 19.0742L45.2653 19.0745C47.0534 20.8498 47.6113 23.3762 46.9494 25.6231L55.4629 34.0623C57.7264 33.4055 60.2769 33.9524 62.0677 35.7304C64.6807 38.3199 64.6805 42.5183 62.0675 45.109L62.0675 45.1091C59.456 47.698 55.2278 47.6978 52.6152 45.1092L52.615 45.1089C50.7351 43.2436 50.209 40.544 51.0372 38.2119L43.7783 31.0167L43.7775 51.2751C44.3215 51.574 44.8219 51.9463 45.264 52.3819L45.265 52.3829C47.8784 54.9724 47.8781 59.1713 45.2652 61.7639L45.265 61.7642C42.6537 64.3515 38.4235 64.3519 35.8154 61.7639C33.2026 59.1713 33.2022 54.9729 35.8155 52.3833C36.3611 51.8423 36.996 51.3995 37.6919 51.0738V29.7638C36.995 29.4392 36.3596 28.9959 35.8152 28.453M43.596 1.86379L36.1676 28.0984M43.596 1.86379L78.8339 36.7907L79.1859 36.4355M43.596 1.86379L79.1859 36.4355M35.8152 28.453C35.8149 28.4528 35.8147 28.4526 35.8145 28.4524L36.1676 28.0984M35.8152 28.453C35.8154 28.4533 35.8156 28.4535 35.8158 28.4537L36.1676 28.0984M35.8152 28.453C33.9215 26.5781 33.4042 23.8613 34.2498 21.5205M36.1676 28.0984C34.3371 26.2865 33.897 23.6243 34.835 21.3965M34.2498 21.5205L34.4829 21.7516L34.835 21.3965M34.2498 21.5205C34.2884 21.4137 34.3299 21.3076 34.3741 21.2025L34.835 21.3965M34.2498 21.5205L34.835 21.3965M79.1859 36.4355L78.8339 36.7907C80.6661 38.6065 80.666 41.5523 78.8335 43.3692L43.7601 78.1344C41.9236 79.9533 38.947 79.953 37.1133 78.1346L37.1132 78.1345L1.87472 43.207L1.87467 43.2069M79.1859 36.4355L1.87467 43.2069M1.87467 43.2069C0.0418531 41.3908 0.0416543 38.4469 1.87481 36.629L1.87467 43.2069ZM25.6847 13.0296L26.0367 12.6807L25.6847 12.3255L25.3327 12.6806L25.6847 13.0296Z" fill="#DBBA8F" stroke="#DBBA8F"/>
</g>
<defs>
<clipPath id="clip0_552_3923">
<rect width="80.708" height="80" fill="white"/>
</clipPath>
</defs>
</g>

<g id="github">
<g clip-path="url(#clip0_552_3935)">
<ellipse cx="39.9993" cy="41.1423" rx="36.9524" ry="38.8571" fill="#A12A30"/>
<path fill-rule="evenodd" clip-rule="evenodd" d="M40 0C17.9 0 0 17.9 0 40C0 57.7 11.45 72.65 27.35 77.95C29.35 78.3 30.1 77.1 30.1 76.05C30.1 75.1 30.05 71.95 30.05 68.6C20 70.45 17.4 66.15 16.6 63.9C16.15 62.75 14.2 59.2 12.5 58.25C11.1 57.5 9.1 55.65 12.45 55.6C15.6 55.55 17.85 58.5 18.6 59.7C22.2 65.75 27.95 64.05 30.25 63C30.6 60.4 31.65 58.65 32.8 57.65C23.9 56.65 14.6 53.2 14.6 37.9C14.6 33.55 16.15 29.95 18.7 27.15C18.3 26.15 16.9 22.05 19.1 16.55C19.1 16.55 22.45 15.5 30.1 20.65C33.3 19.75 36.7 19.3 40.1 19.3C43.5 19.3 46.9 19.75 50.1 20.65C57.75 15.45 61.1 16.55 61.1 16.55C63.3 22.05 61.9 26.15 61.5 27.15C64.05 29.95 65.6 33.5 65.6 37.9C65.6 53.25 56.25 56.65 47.35 57.65C48.8 58.9 50.05 61.3 50.05 65.05C50.05 70.4 50 74.7 50 76.05C50 77.1 50.75 78.35 52.75 77.95C60.6906 75.2691 67.5906 70.1656 72.4789 63.3579C77.3672 56.5502 79.9976 48.381 80 40C80 17.9 62.1 0 40 0Z" fill="#DBBA8F"/>
</g>
<defs>
<clipPath id="clip0_552_3935">
<rect width="80" height="80" fill="white"/>
</clipPath>
</defs>
</g>

<g id="gulp">
<path d="M58.3041 2.5005C58.1968 2.50445 58.1133 2.53289 58.0574 2.58351L48.2815 13.6138L46.2872 20.1275C44.932 20.085 43.5325 20.0689 42.0983 20.0689C31.9377 20.0689 23.6875 21.0914 23.6875 22.3589C23.6875 25.3839 60.5039 25.3839 60.5039 22.3589C60.5039 21.4214 56.0964 20.6294 49.7412 20.2544L51.3191 14.8931L60.4628 4.44386L60.4782 4.42922C60.6835 4.22672 60.2828 3.61894 59.6301 3.08644C59.1407 2.68519 58.6259 2.48867 58.3041 2.5005ZM45.5368 22.6909L45.5008 22.7935C45.485 22.806 45.4854 22.8224 45.4854 22.8374C45.4854 23.0249 46.2824 23.1792 47.2535 23.1792C48.2246 23.1792 49.0267 23.0249 49.0267 22.8374L49.0576 22.7202C49.3128 22.8077 49.4533 22.908 49.4533 23.023C49.4533 23.3255 48.467 23.5726 47.2381 23.5601C46.0433 23.5601 45.0537 23.3304 45.0537 23.0279C45.0537 22.8979 45.25 22.7784 45.5368 22.6909ZM60.2983 23.5503C55.4273 26.0178 28.8185 26.0345 23.9291 23.5845L26.0929 41.6656C27.0324 38.7831 29.4084 34.8914 32.4663 33.7114C33.4689 33.3214 34.487 33.3233 35.4422 33.8433C36.2712 34.2758 36.972 35.1825 37.051 35.5425C37.2431 36.48 36.7339 36.8511 36.3366 36.8511C35.8576 36.8511 35.4915 36.1913 35.2521 35.8013C34.5994 34.7488 33.6114 34.7035 32.5588 35.396C31.4588 36.116 30.5031 37.3269 29.8347 38.3794C29.0215 39.6469 28.3359 41.0444 27.9227 42.4419C27.6832 43.2494 27.4644 44.5431 27.8302 45.3081C27.9907 45.6256 28.2272 45.8257 28.6114 45.8257C29.4088 45.8257 30.5669 44.8756 31.1248 44.3706C31.8406 43.7231 32.7639 42.7134 33.1139 42.0659L33.9466 39.8345C34.3597 38.8545 35.5193 39.027 35.5193 39.8345C35.5193 41.3045 34.9338 41.7945 33.9311 44.8345C33.0074 47.6445 32.7181 48.5552 32.7181 48.5552C32.6076 48.9577 32.1764 49.6343 31.7159 49.6343C31.5238 49.6343 31.3836 49.5735 31.3047 49.4585C31.1442 49.256 31.1604 48.7002 31.1762 48.5552C31.2078 48.0952 32.1773 45.3549 32.3378 44.9224C32.0194 45.2399 31.6859 45.5595 31.3201 45.8745C30.4596 46.6095 29.0759 47.5738 27.897 47.5738C27.3549 47.5738 27.0079 47.4421 26.6737 47.2271L27.8816 58.6968C28.2 59.4168 34.126 61.1626 41.9287 61.1626C49.7471 61.1626 55.668 59.4043 55.9706 58.6968L57.7079 45.0689C56.8 45.8189 55.7512 46.7427 54.588 47.2027C53.7275 47.5352 51.8176 47.7475 51.8176 46.3775C51.8176 45.6275 53.2679 44.2468 54.11 43.2818C54.3337 43.0368 54.8553 42.4323 54.8553 42.1148C54.8553 41.6973 53.9026 41.7937 52.9947 42.4712C52.4841 42.8612 52.0043 43.3826 51.6069 43.8726C50.9227 44.7376 50.5578 45.484 50.2551 46.104C49.2683 48.149 49.6031 47.343 48.8057 49.273C48.0084 51.1905 48.1387 50.9721 47.9782 51.2896C47.8361 51.5646 47.6277 51.7965 47.3409 51.939C47.0382 52.084 46.6247 52.0675 46.3695 51.895C46.2273 51.8075 46.1587 51.6203 46.1587 51.3628C46.1587 51.2328 46.1785 51.1022 46.2101 50.9722C46.4496 50.0922 47.4528 48.3658 48.6001 46.0308C48.8554 45.4983 48.7577 45.6563 48.7235 45.6988C47.7366 46.5638 46.9864 46.9824 46.4311 47.2124C45.5074 47.5874 44.3602 47.5866 44.1234 46.6216C44.1076 46.5641 44.1083 46.5033 44.0925 46.4458C42.2136 47.7708 40.2241 48.1313 40.911 45.2788C40.1794 46.4613 38.902 47.4273 37.3388 47.4273C36.6862 47.4273 36.2085 47.2273 35.9716 46.6948C35.6058 45.9023 36.1778 44.5447 36.7015 43.2622C36.9725 42.6147 37.3426 41.8357 37.8374 40.9282C38.0926 40.4382 38.5031 40.1488 39.0452 40.2788C39.14 40.3088 39.2233 40.3389 39.3022 40.3814C39.7154 40.6414 39.5564 41.0265 39.3485 41.4165C38.7432 42.4965 38.2182 43.2896 37.8682 44.4146C37.7261 44.8896 37.5468 45.7134 38.1046 45.7134C38.4862 45.7134 38.8519 45.5967 39.2046 45.3667C39.9361 44.8767 40.5253 44.1434 40.9727 43.4234C41.2911 42.9059 41.6749 42.2284 41.867 41.6509C41.9459 41.4059 42.0443 41.175 42.1548 40.9575C42.3311 40.5975 42.5665 40.2251 42.9823 40.2251C43.1902 40.2251 43.3622 40.2975 43.4912 40.44C43.7622 40.7575 43.7027 41.0837 43.558 41.4312C43.2396 42.2387 42.8107 42.9609 42.4581 43.8384C42.2502 44.3434 42.0263 44.9905 42.0263 45.523C42.0263 46.013 42.6161 45.8964 43.1108 45.6939C43.4924 45.5364 43.8743 45.2943 44.1953 45.0493C44.3874 44.3443 44.3365 44.5002 48.3997 35.2202C48.6076 34.7452 48.9895 34.5415 49.3711 34.5415C49.5632 34.5415 49.7194 34.6027 49.8799 34.7027C50.151 34.8902 50.1549 35.2888 50.0444 35.5913C49.9339 35.8663 49.9459 35.78 49.3248 37.105C48.4959 38.8475 47.9569 40.1046 47.2227 41.7046C46.92 42.3671 45.9979 44.4275 45.8401 44.9175C45.7453 45.235 45.631 45.7525 45.9994 45.7525C46.8599 45.7525 49.0742 43.8638 49.6795 43.3013C49.7111 43.2588 49.7602 43.2434 49.8234 43.2134C49.9181 42.9384 50.0117 42.6824 50.0907 42.4224C50.3144 41.8749 50.5229 41.2365 50.9387 40.7915C51.0651 40.6465 51.2074 40.562 51.3653 40.562C51.8101 40.562 52.0335 40.7332 52.0335 41.1382C52.0335 41.2957 51.9246 41.8743 51.8588 42.0318C52.0824 41.8168 52.3179 41.6022 52.5732 41.3872C54.9627 39.3847 56.6645 40.4065 56.6645 41.4165C56.6645 42.4815 55.2487 43.9632 54.4698 44.7857C54.2145 45.0607 53.6889 45.5635 53.6731 45.7085C53.6731 45.896 53.8147 45.9722 54.0226 45.9722C54.341 45.9722 55.042 45.466 55.2973 45.2935C56.0947 44.731 57.1734 43.8672 57.9391 43.2622L60.2983 23.5503ZM28.7656 60.0786L31.1402 63.7407L32.0654 75.1812C32.0654 76.4637 36.5716 77.5005 42.1137 77.5005C47.6558 77.5005 52.162 76.4637 52.162 75.1812L52.897 63.6236L55.138 60.0786C48.8301 62.4861 35.3288 62.5711 28.7656 60.0786Z" fill="#DBBA8F"/>
</g>

<g id="html">
<path d="M14.7503 68.0025L9.13281 5H70.8578L65.2328 67.9925L39.9578 75L14.7503 68.0025Z" fill="#DBBA8F"/>
<path d="M40 33.5189H29.775L29.07 25.6064H40V17.8789H20.625L20.81 19.9539L22.7075 41.2464H40V33.5189ZM40 53.5864L39.965 53.5964L31.36 51.2739L30.81 45.1114H23.0525L24.135 57.2414L39.965 61.6364L40 61.6264V53.5864Z" fill="#A12A30"/>
<path d="M39.9766 33.5189V41.2464H49.4916L48.5966 51.2689L39.9766 53.5939V61.6339L55.8191 57.2414L55.9341 55.9364L57.7491 35.5939L57.9391 33.5189H39.9766ZM39.9766 17.8789V25.6064H58.6416L58.7966 23.8714L59.1491 19.9539L59.3341 17.8789H39.9766Z" fill="#A12A30"/>
</g>

<g id="js"> 
<path d="M2 2H78V78H2V2Z" fill="#DBBA8F"/>
<path d="M52.0222 59.686C52.6186 60.8975 53.5452 61.9158 54.6953 62.6235C55.8453 63.3312 57.1719 63.6996 58.5222 63.686C61.2472 63.686 62.9897 62.3235 62.9897 60.436C62.9897 58.186 61.1997 57.381 58.1997 56.0685L56.5547 55.3635C51.8047 53.341 48.6547 50.8085 48.6547 45.4535C48.6547 40.521 52.4047 36.7635 58.2872 36.7635C60.1915 36.626 62.0941 37.0522 63.7577 37.9889C65.4213 38.9257 66.7723 40.3315 67.6422 42.031L62.4997 45.3185C62.1647 44.4758 61.5815 43.7549 60.8274 43.2512C60.0733 42.7476 59.1839 42.4851 58.2772 42.4985C57.8816 42.4589 57.4821 42.5022 57.1041 42.6255C56.7262 42.7488 56.378 42.9495 56.0819 43.2148C55.7858 43.4801 55.5482 43.8042 55.3843 44.1664C55.2203 44.5286 55.1336 44.921 55.1297 45.3185C55.1297 47.291 56.3522 48.091 59.1747 49.3185L60.8197 50.0235C66.4097 52.421 69.5697 54.8635 69.5697 60.356C69.5697 66.2785 64.9172 69.5235 58.6697 69.5235C56.2354 69.6786 53.8083 69.126 51.6812 67.9322C49.5541 66.7385 47.8179 64.9547 46.6822 62.796L52.0222 59.686ZM28.7847 60.256C29.8172 62.0885 30.7572 63.6385 33.0172 63.6385C35.1772 63.6385 36.5422 62.7935 36.5422 59.506V37.1385H43.1197V59.5935C43.1197 66.4035 39.1197 69.5035 33.2972 69.5035C31.2391 69.616 29.1951 69.1031 27.4339 68.0322C25.6727 66.9613 24.2768 65.3826 23.4297 63.5035L28.7847 60.256Z" fill="#A12A30"/>
</g>

<g id="next-js">
<g clip-path="url(#clip0_552_3890)">
<path d="M59.0322 74.3921C58.7399 74.5469 58.7645 74.596 59.0445 74.4536C59.1353 74.4167 59.2115 74.3651 59.2778 74.3037C59.2778 74.2521 59.2778 74.2521 59.0322 74.3921ZM59.6216 74.0728C59.4816 74.1883 59.4816 74.1883 59.6487 74.1121C59.7371 74.0606 59.8157 74.0114 59.8157 73.9967C59.8157 73.9304 59.7764 73.9451 59.6216 74.0728ZM60.0048 73.842C59.8648 73.9574 59.8648 73.9574 60.0318 73.8813C60.1227 73.8297 60.1988 73.7756 60.1988 73.7634C60.1988 73.702 60.1595 73.7142 60.0048 73.842ZM60.3928 73.6135C60.2528 73.729 60.2528 73.729 60.4149 73.6504C60.5058 73.6012 60.582 73.5497 60.582 73.5349C60.582 73.4735 60.5427 73.4858 60.3928 73.6135ZM60.916 73.2672C60.6483 73.4465 60.5549 73.562 60.8005 73.4342C60.9651 73.3335 61.2451 73.1125 61.196 73.1125C61.0904 73.1518 61.0019 73.2181 60.9135 73.2672H60.916ZM37.4286 0.721178C37.2494 0.733459 36.7115 0.782583 36.2399 0.821882C25.0697 1.83383 14.6192 7.84658 7.99518 17.1089C4.33319 22.1858 1.95572 28.0831 1.05925 34.2752C0.742422 36.4366 0.703125 37.0752 0.703125 40.0055C0.703125 42.9333 0.742422 43.562 1.05925 45.7235C3.19849 60.4877 13.7006 72.8816 27.936 77.4747C30.4976 78.2926 33.1821 78.8575 36.2399 79.2038C37.4286 79.3315 42.5692 79.3315 43.7579 79.2038C49.0434 78.6143 53.506 77.3101 57.922 75.0578C58.5999 74.7139 58.7276 74.623 58.6367 74.5469C56.4754 71.6952 54.3534 68.8412 52.2289 65.9625L45.9487 57.4813L38.082 45.8267C35.4589 41.9262 32.826 38.0356 30.1513 34.1745C30.1243 34.1745 30.0899 39.3546 30.0752 45.6719C30.0482 56.737 30.0482 57.1865 29.9082 57.442C29.7682 57.749 29.5373 58.0044 29.2303 58.1469C28.9872 58.2623 28.7686 58.2869 27.6068 58.2869H26.2781L25.9318 58.0708C25.7157 57.9308 25.5364 57.7367 25.4209 57.5083L25.2539 57.162L25.2662 41.7592L25.2932 26.3564L25.5364 26.0494C25.6911 25.8603 25.8827 25.7055 26.0988 25.5901C26.4206 25.4354 26.5483 25.4108 27.877 25.4108C29.4366 25.4108 29.6945 25.4722 30.1047 25.9217C33.2877 30.667 36.461 35.4247 39.5826 40.1971C44.6888 47.939 51.6591 58.503 55.0853 63.6856L61.3163 73.1149L61.6233 72.9111C64.6173 70.9142 67.341 68.5366 69.6915 65.825C74.6429 60.1561 77.8555 53.1829 78.9435 45.7407C79.2603 43.5792 79.2996 42.9382 79.2996 40.0104C79.2996 37.0802 79.2603 36.4538 78.9435 34.2924C76.8043 19.5282 66.3021 7.13429 52.0668 2.53876C49.4044 1.69629 46.6659 1.12154 43.893 0.826794C43.1488 0.750652 38.0697 0.659773 37.4311 0.72609L37.4286 0.721178ZM53.5085 24.4897C53.8794 24.6666 54.1593 25.0006 54.2871 25.3838C54.3534 25.5901 54.3657 29.8614 54.3534 39.4823L54.3264 53.2959L51.8973 49.5625L49.4535 45.8267V35.798C49.4535 29.2965 49.4805 25.6515 49.5149 25.4722C49.6304 25.062 49.9104 24.7182 50.2837 24.502C50.5882 24.3473 50.7061 24.335 51.9219 24.335C53.059 24.335 53.2531 24.3473 53.5085 24.4897Z" fill="#DBBA8F"/>
</g>
<defs>
<clipPath id="clip0_552_3890">
<rect width="80" height="80" fill="white"/>
</clipPath>
</defs>
</g>

<g id="react">
<g clip-path="url(#clip0_552_3885)">
<path d="M75.935 25.9031C74.9521 25.5751 73.9609 25.2713 72.9623 24.9919C73.1301 24.3252 73.2845 23.6666 73.4216 23.0196C75.672 12.3947 74.2008 3.83503 69.1757 1.01678C64.3577 -1.68497 56.4782 1.13222 48.5204 7.86801C47.7362 8.53304 46.9693 9.21723 46.2206 9.91994C45.7193 9.45266 45.2092 8.99445 44.6905 8.54555C36.3504 1.34345 27.9907 -1.69199 22.971 1.13432C18.1573 3.8445 16.7319 11.8912 18.758 21.9606C18.9596 22.9579 19.1872 23.95 19.4406 24.9361C18.2573 25.2631 17.1154 25.6112 16.0227 25.9817C6.24449 29.2975 0 34.4936 0 39.8834C0 45.4501 6.70374 51.0336 16.8882 54.4192C17.7138 54.6926 18.5464 54.9459 19.385 55.1789C19.1126 56.2409 18.8708 57.3101 18.6599 58.3852C16.7283 68.2799 18.2367 76.1364 23.0374 78.8294C27.9958 81.6105 36.3179 78.7522 44.4211 71.8627C45.0781 71.3026 45.7207 70.7267 46.3483 70.1354C47.1591 70.8963 47.9916 71.635 48.8448 72.3508C56.6943 78.9199 64.4464 81.5726 69.2424 78.8722C74.1961 76.0831 75.8062 67.6431 73.7159 57.3747C73.5513 56.5702 73.3666 55.7697 73.1622 54.974C73.7466 54.8055 74.3202 54.6322 74.8794 54.4519C85.4672 51.0403 92.356 45.5245 92.356 39.8834C92.356 34.474 85.9098 29.2427 75.935 25.9031ZM73.6387 50.8098C73.1337 50.9722 72.6156 51.1291 72.0874 51.2817C70.9186 47.6827 69.3413 43.8561 67.4108 39.902C69.2529 36.0424 70.7696 32.2645 71.9056 28.6891C72.8505 28.955 73.7672 29.2354 74.651 29.5312C83.1976 32.3929 88.4106 36.6234 88.4106 39.8834C88.4106 43.3557 82.7805 47.8634 73.6387 50.8098ZM69.8456 58.1199C70.7699 62.6603 70.9016 66.7655 70.2894 69.975C69.7396 72.8589 68.6335 74.7813 67.2654 75.5515C64.3552 77.1901 58.1309 75.0603 51.4181 69.442C50.6245 68.7766 49.8502 68.0897 49.0959 67.3824C51.6984 64.6143 54.2992 61.3964 56.8375 57.8224C61.3024 57.4371 65.5204 56.807 69.3456 55.947C69.5299 56.6673 69.6966 57.3919 69.8456 58.1199ZM31.4862 75.2684C28.6426 76.2449 26.3777 76.2729 25.0086 75.5052C22.0954 73.8712 20.8844 67.5627 22.5363 59.101C22.7327 58.1011 22.9575 57.1067 23.2106 56.1189C26.9936 56.9329 31.181 57.5182 35.6563 57.8712C38.2119 61.3684 40.8877 64.5827 43.5844 67.3975C43.0113 67.9368 42.4247 68.4624 41.825 68.9736C38.2415 72.0199 34.6508 74.1813 31.4862 75.2684ZM18.1645 50.7884C13.6611 49.2912 9.94198 47.3456 7.39281 45.2224C5.10195 43.3147 3.94569 41.4203 3.94569 39.8834C3.94569 36.6126 8.95925 32.4406 17.3214 29.6052C18.3363 29.2613 19.3984 28.9368 20.5005 28.6322C21.6564 32.2884 23.1723 36.1112 25.0018 39.9768C23.1485 43.8996 21.6109 47.7834 20.4439 51.4827C19.6784 51.2695 18.9184 51.0379 18.1645 50.7884ZM22.6301 21.2234C20.8945 12.5964 22.0471 6.08871 24.948 4.45538C28.0376 2.71573 34.8698 5.19608 42.071 11.415C42.5406 11.8215 43.0026 12.2362 43.4567 12.6589C40.7734 15.4613 38.1221 18.6519 35.5892 22.1284C31.2455 22.5199 27.0877 23.1487 23.265 23.9912C23.0295 23.074 22.8178 22.1513 22.6301 21.2238V21.2234ZM62.4684 30.7912C61.5654 29.2743 60.629 27.7765 59.6598 26.2989C62.6065 26.6613 65.4299 27.1424 68.0811 27.7305C67.2853 30.2119 66.2932 32.8059 65.1254 35.4655C64.2718 33.8904 63.3859 32.3319 62.4684 30.7912ZM46.2224 15.4013C48.0421 17.3189 49.8647 19.4596 51.6573 21.7824C48.0208 21.6154 44.3782 21.6147 40.7416 21.7803C42.5361 19.4789 44.3742 17.341 46.2224 15.4013ZM29.8721 30.8175C28.966 32.3458 28.0967 33.8946 27.2649 35.4624C26.1162 32.8122 25.1331 30.2063 24.3304 27.6898C26.9654 27.1164 29.7754 26.6477 32.7034 26.2919C31.7233 27.7785 30.7793 29.2874 29.8721 30.8171V30.8175ZM32.7875 53.748C29.7624 53.4196 26.9102 52.975 24.2759 52.4171C25.0912 49.8557 26.096 47.1943 27.2695 44.4873C28.1047 46.0563 28.9776 47.606 29.8876 49.135C30.8234 50.707 31.7925 52.2466 32.7875 53.748ZM46.3313 64.6357C44.4611 62.6736 42.5959 60.5027 40.7744 58.168C42.5429 58.2354 44.3457 58.2698 46.178 58.2698C48.0605 58.2698 49.9213 58.2287 51.7529 58.1494C49.9545 60.5263 48.1387 62.7003 46.3313 64.6357ZM65.1626 44.3491C66.3971 47.0859 67.4375 49.7333 68.2637 52.2508C65.5861 52.8452 62.6949 53.3238 59.6486 53.6792C60.6248 52.1742 61.57 50.6504 62.4839 49.1087C63.413 47.5417 64.3061 45.9547 65.1626 44.3491ZM59.0663 47.1915C57.6674 49.5552 56.1897 51.8739 54.6358 54.1441C51.8209 54.338 48.9999 54.4344 46.178 54.4329C43.3038 54.4329 40.5082 54.3459 37.8162 54.1761C36.2217 51.9111 34.7158 49.5883 33.3019 47.2126H33.3023C31.895 44.8494 30.5805 42.4352 29.3616 39.975C30.5774 37.5143 31.8879 35.0989 33.2904 32.734L33.29 32.7343C34.6919 30.3688 36.1857 28.0559 37.7682 25.8006C40.5147 25.5985 43.3312 25.4933 46.1776 25.4933H46.178C49.0374 25.4933 51.8575 25.5996 54.6033 25.8031C56.1698 28.055 57.654 30.3599 59.0533 32.7136C60.4605 35.0733 61.7883 37.4769 63.0348 39.9206C61.8011 42.3893 60.4775 44.8145 59.0663 47.1915ZM67.2052 4.34099C70.2977 6.07573 71.5005 13.0712 69.5574 22.2448C69.4333 22.8301 69.294 23.4263 69.1425 24.0308C65.3105 23.1705 61.1498 22.5308 56.7935 22.1333C54.2559 18.6185 51.6263 15.4231 48.9865 12.6568C49.6784 12.0082 50.3866 11.3764 51.1107 10.762C57.9292 4.99117 64.3018 2.71257 67.2052 4.34099ZM46.178 31.8624C50.7327 31.8624 54.4251 35.4536 54.4251 39.8834C54.4251 44.3133 50.7327 47.9045 46.178 47.9045C41.6233 47.9045 37.9309 44.3133 37.9309 39.8834C37.9309 35.4536 41.6233 31.8624 46.178 31.8624Z" fill="#DBBA8F"/>
</g>
<defs>
<clipPath id="clip0_552_3885">
<rect width="92.3636" height="80" fill="white"/>
</clipPath>
</defs>
</g>

<g id="redux">
<path d="M54.8952 53.9879C57.6916 53.7431 59.8548 51.2462 59.7166 48.263C59.5655 45.2799 57.158 42.8842 54.2234 42.8842H54.0274C52.5711 42.9369 51.195 43.5748 50.2017 44.6575C49.2083 45.7402 48.6791 47.1791 48.7303 48.658C48.8267 50.2214 49.4567 51.4943 50.3181 52.4212C46.9496 59.073 41.8936 63.9623 34.2309 68.0715C29.0785 70.8066 23.6368 71.838 18.3397 71.1069C13.9105 70.4704 10.4456 68.4631 8.32417 65.2352C5.14851 60.3426 4.85923 55.0649 7.50454 49.784C9.43308 45.9653 12.3227 43.1812 14.2512 41.8104C13.669 40.1711 13.2176 38.487 12.9012 36.7742C-1.36031 47.1468 0.0925201 61.3251 4.42531 68.0258C7.6524 72.9151 14.2512 76.0418 21.4736 76.0418C23.4021 76.0418 25.4271 75.8982 27.3974 75.4087C39.9233 72.964 49.4085 65.3363 54.8502 54.0891L54.8952 53.9879ZM72.0849 41.7614C64.6279 32.8576 53.6417 27.9683 41.119 27.9683H39.4797C38.6665 26.1601 36.7894 25.0341 34.6648 25.0341H34.5202C31.4892 25.0341 29.1267 27.6778 29.2263 30.7556C29.3228 33.6866 31.7784 36.1345 34.7163 36.1345H34.9541C35.9961 36.0936 37.0045 35.749 37.8589 35.1419C38.7133 34.5348 39.3775 33.6908 39.7722 32.7107H41.5561C48.9778 32.7107 56.0041 34.9105 62.4101 39.2123C67.3182 42.4925 70.8378 46.7943 72.8146 51.9316C74.5438 56.1355 74.4506 60.2447 72.6699 63.6718C69.9218 69.0474 65.2965 71.8869 59.183 71.8869C55.3291 71.8869 51.5749 70.663 49.6464 69.785C48.4892 70.7576 46.5607 72.3733 45.1657 73.3524C49.4021 75.3042 53.6899 76.4302 57.8298 76.4302C67.2218 76.4302 74.2031 71.0546 76.8549 65.8684C79.7412 59.9999 79.5034 50.1234 72.1299 41.6635L72.0849 41.7614ZM22.29 55.7438C22.3864 58.678 24.8389 61.1227 27.7799 61.1227H27.9728C28.6966 61.1061 29.4098 60.9426 30.0704 60.6418C30.7309 60.341 31.3256 59.909 31.8192 59.3713C32.3128 58.8335 32.6955 58.2009 32.9446 57.5106C33.1938 56.8204 33.3043 56.0865 33.2698 55.3522C33.2698 52.4147 30.766 49.9766 27.8281 49.9766H27.6353C27.4424 49.9766 27.1532 49.9766 26.9089 50.0712C22.9136 43.2236 21.2261 35.8832 21.8561 27.9683C22.2418 22.0019 24.1703 16.8156 27.6321 12.5139C30.5249 8.84526 35.9666 7.03055 39.6758 6.93916C50.0771 6.74006 54.4131 19.9 54.7474 25.132L59.5623 26.6007C58.4534 10.5555 48.6339 2.14453 39.2419 2.14453C30.422 2.14453 22.29 8.64943 19.0115 18.1865C14.5341 30.8992 17.4719 43.129 22.965 52.9108C22.4829 53.5472 22.1936 54.67 22.29 55.7438Z" fill="#DBBA8F"/>
</g>

<g id="rest">
<path d="M22.8218 71.7941H21.1773C19.7275 71.8206 18.2803 71.6486 16.8689 71.2822C15.587 70.8857 14.4715 70.0074 13.7156 68.7995C12.8056 67.4329 12.2269 65.8331 12.0342 64.1513C11.7621 61.553 11.644 58.938 11.6806 56.3228C11.7241 53.7699 11.6142 51.2168 11.3518 48.6799C11.1763 47.1363 10.5979 45.6821 9.68675 44.4938C9.13942 43.8835 8.47971 43.4096 7.75209 43.104C7.02447 42.7984 6.24586 42.6683 5.46875 42.7224V37.295C6.24586 37.3491 7.02447 37.219 7.75209 36.9134C8.47971 36.6078 9.13942 36.1339 9.68675 35.5236C10.5979 34.3353 11.1763 32.8811 11.3518 31.3375C11.6142 28.8006 11.7241 26.2475 11.6806 23.6947C11.6407 21.0751 11.756 18.4555 12.026 15.8525C12.2187 14.1707 12.7974 12.5709 13.7074 11.2043C14.4633 9.99643 15.5788 9.11812 16.8606 8.72161C18.2721 8.35521 19.7193 8.18325 21.1691 8.20967H22.8135V13.3744H21.8844C19.8015 13.3744 18.5257 13.9784 18.057 15.1865C17.4011 18.4103 17.163 21.7202 17.3499 25.0175C17.5656 28.6164 16.9785 32.2188 15.6396 35.51C14.5133 37.7049 12.648 39.3227 10.4473 40.0132C11.5377 40.3441 12.5581 40.909 13.4498 41.6756C14.3416 42.4421 15.0872 43.3953 15.6438 44.4802C16.9827 47.7683 17.5712 51.3674 17.3581 54.9636C17.1713 58.261 17.4093 61.5709 18.0652 64.7946C18.5366 66.0027 19.8124 66.6068 21.8927 66.6068H22.8218V71.7941ZM29.3996 57.5641H33.6546V41.916H39.6527L47.7516 57.5641H52.6191L44.0803 41.4086C46.2786 40.9615 48.2546 39.6496 49.6408 37.717C51.027 35.7844 51.7289 33.3628 51.616 30.9026C51.616 23.2008 46.6827 20.5098 39.8788 20.5098H29.4201L29.3996 57.5641ZM33.6546 38.0833V24.2927H39.2416C44.4709 24.2927 47.3405 26.0414 47.3405 30.9026C47.3405 35.7637 44.4627 38.0742 39.2416 38.0742L33.6546 38.0833ZM56.5 8.22326H58.1445C59.5943 8.19684 61.0415 8.3688 62.4529 8.7352C63.7348 9.13171 64.8503 10.01 65.6061 11.2179C66.5162 12.5845 67.0949 14.1843 67.2876 15.8661C67.5575 18.4691 67.6729 21.0887 67.6329 23.7082C67.5895 26.2611 67.6994 28.8142 67.9618 31.3511C68.1373 32.8947 68.7157 34.3489 69.6268 35.5372C70.1741 36.1475 70.8339 36.6214 71.5615 36.927C72.2891 37.2326 73.0677 37.3627 73.8448 37.3086V42.7043C73.0677 42.6502 72.2891 42.7803 71.5615 43.0859C70.8339 43.3914 70.1741 43.8654 69.6268 44.4757C68.7157 45.6639 68.1373 47.1182 67.9618 48.6618C67.6994 51.1986 67.5895 53.7518 67.6329 56.3046C67.6729 58.9242 67.5575 61.5438 67.2876 64.1468C67.0949 65.8285 66.5162 67.4284 65.6061 68.795C64.8503 70.0028 63.7348 70.8812 62.4529 71.2777C61.0415 71.6441 59.5943 71.816 58.1445 71.7896H56.5V66.6249H57.4291C59.5121 66.6249 60.7879 66.0209 61.2566 64.8128C61.9278 61.5853 62.1797 58.2691 62.0048 54.9636C61.789 51.3647 62.3762 47.7623 63.715 44.4712C64.836 42.288 66.6977 40.6846 68.8909 40.0132C66.6887 39.3237 64.8217 37.7058 63.6945 35.51C62.3557 32.2188 61.7685 28.6164 61.9842 25.0175C62.1711 21.7202 61.933 18.4103 61.2771 15.1865C60.8057 13.9784 59.5299 13.3744 57.4497 13.3744H56.5206L56.5 8.22326Z" fill="#DBBA8F"/>
</g>

<g id="sass">
<g clip-path="url(#clip0_552_3930)">
<path d="M78.1935 46.0458C75.0323 46.065 72.2845 46.9587 69.9841 48.28C69.1396 46.3175 68.2955 44.5691 68.1468 43.2866C67.981 41.7908 67.7826 40.8775 67.981 39.09C68.1798 37.3025 69.0736 34.757 69.0569 34.5629C69.0406 34.3687 68.8581 33.4554 67.0376 33.4362C65.217 33.4166 63.6445 33.8441 63.4624 34.4075C63.2803 34.9708 62.9328 36.2533 62.701 37.5741C62.3865 39.5175 59.0599 46.4533 57.1566 50.0866C56.5439 48.6687 56.0143 47.425 55.8983 46.4341C55.7329 44.9383 55.5341 44.025 55.7329 42.2375C55.9316 40.45 56.8254 37.905 56.8087 37.7104C56.792 37.5162 56.61 36.6029 54.7894 36.5837C52.9684 36.5641 51.396 36.9916 51.2142 37.555C51.0321 38.1187 50.8334 39.4395 50.4529 40.722C50.072 42.0045 45.6528 53.5845 44.4942 56.5762C44.026 57.7871 43.5348 58.9856 43.0211 60.1708C43.0211 60.1708 43.0044 60.2291 42.9547 60.3262C42.7933 60.6978 42.6279 61.067 42.4585 61.4337V61.4529C42.21 61.9779 41.9452 62.4633 41.8128 62.4633C41.7134 62.4633 41.5313 61.0645 41.8458 59.1604C42.5078 55.1387 44.0803 48.8825 44.064 48.6687C44.064 48.552 44.3618 47.4641 43.0378 46.9004C41.7464 46.337 41.2832 47.2695 41.1672 47.2695C41.0514 47.2695 40.9684 47.6 40.9684 47.6C40.9684 47.6 42.4088 40.5666 38.221 40.5666C35.606 40.5666 31.9975 43.9279 30.21 46.9587C28.1779 48.2568 26.1475 49.5586 24.1189 50.8641C23.1427 51.5054 22.1329 52.1466 21.1894 52.7487C21.123 52.6712 21.057 52.5737 20.9906 52.4962C15.9257 46.1429 6.55769 41.6545 6.95489 33.1254C7.10397 30.0166 8.01409 21.8562 24.9466 11.9475C38.883 3.88413 49.973 6.11829 51.8929 11.0729C54.6403 18.1454 45.9509 31.2795 31.5506 33.1833C26.0555 33.9025 23.1754 31.4154 22.4474 30.4829C21.686 29.5112 21.5699 29.4529 21.2884 29.6475C20.8252 29.9391 21.123 30.8133 21.2884 31.3183C21.719 32.6391 23.4899 34.9708 26.4857 36.1175C29.1341 37.1275 35.5727 37.6912 43.3686 34.155C52.0913 30.1912 58.9108 19.175 56.9081 9.94621C54.9051 0.581209 41.6637 -2.50796 29.1341 2.71829C21.686 5.82746 13.6086 10.7233 7.79898 17.0962C0.896821 24.6733 -0.195739 31.26 0.251153 34.0191C1.85698 43.8112 13.3605 50.1841 17.9618 54.9054C17.73 55.0608 17.5145 55.197 17.3328 55.3137C15.032 56.6541 6.25953 62.0358 4.07476 67.7287C1.59218 74.1791 4.47231 78.8037 6.3756 79.4249C12.2846 81.3487 18.359 77.8904 21.6196 72.1779C24.8803 66.4658 24.4831 59.0437 22.977 55.6437C22.9603 55.6049 22.944 55.5658 22.9106 55.527C23.5066 55.1191 24.1189 54.6916 24.7149 54.2837C25.8102 53.5236 26.9195 52.7915 28.0419 52.0879C27.4789 53.895 27.065 56.0516 26.8666 59.1604C26.6181 62.8133 27.8924 67.5537 29.5643 69.4187C30.3093 70.2354 31.1864 70.2545 31.7494 70.2545C33.7024 70.2545 34.5798 68.3504 35.5563 66.0966C36.7479 63.3379 37.8238 60.132 37.8238 60.132C37.8238 60.132 36.4831 68.7974 40.1246 68.7974C41.4486 68.7974 42.7893 66.7766 43.3853 65.747V65.7662C43.3853 65.7662 43.4183 65.7079 43.4847 65.572C43.6171 65.3195 43.6998 65.1637 43.6998 65.1637V65.1254C44.2294 64.037 45.4213 61.5695 47.1922 57.47C49.4764 52.1854 51.6778 45.5795 51.6778 45.5795C51.6778 45.5795 51.8766 47.192 52.5549 49.8733C52.9525 51.447 53.7795 53.1762 54.4419 54.847C53.9123 55.7216 53.5811 56.207 53.5811 56.207L53.5978 56.2266C53.1672 56.887 52.704 57.6058 52.1907 58.3058C50.3865 60.8312 48.2351 63.7266 47.9369 64.5616C47.5891 65.5525 47.6721 66.2716 48.3345 66.8545C48.8144 67.282 49.6748 67.34 50.5522 67.282C52.1744 67.1458 53.3163 66.6795 53.8789 66.3883C54.7564 66.0191 55.7826 65.4554 56.7424 64.6199C58.5136 63.0849 59.5891 60.8895 59.4901 57.995C59.4404 56.4016 58.9935 54.8083 58.4472 53.312C58.613 53.0404 58.7617 52.7683 58.9275 52.4962C61.7245 47.697 63.893 42.4316 63.893 42.4316C63.893 42.4316 64.0918 44.0441 64.7701 46.7258C65.1013 48.0858 65.7799 49.5625 66.3756 51C63.7439 53.5066 62.1217 56.4208 61.5424 58.325C60.4999 61.8612 61.3107 63.4541 62.8501 63.8233C63.5451 63.9983 64.5383 63.6095 65.2667 63.2404C66.1935 62.8908 67.286 62.2887 68.3289 61.3945C70.1001 59.86 71.8046 57.7225 71.7053 54.8279C71.6556 53.5066 71.3577 52.2045 70.9439 50.9416C73.1783 49.8541 76.0585 49.2516 79.7326 49.7566C87.6116 50.8445 89.1674 56.615 88.8692 59.0441C88.5714 61.4725 86.9163 62.7937 86.3703 63.2016C85.8237 63.61 85.642 63.7458 85.6917 64.037C85.7577 64.4645 86.0225 64.4454 86.4861 64.3674C87.1317 64.2316 90.6242 62.4049 90.7729 57.9362C91.0214 52.2241 86.3867 45.9875 78.1935 46.0458ZM17.4155 70.0991C14.8002 73.4408 11.159 74.7037 9.58655 73.6354C7.89837 72.4887 8.56036 67.5537 11.7713 64.0179C13.7243 61.8612 16.2402 59.8595 17.9121 58.6358C18.2926 58.3637 18.8556 57.9754 19.5342 57.4895C19.65 57.4116 19.7163 57.3729 19.7163 57.3729L20.1135 57.0812C21.2884 62.1329 20.1632 66.5825 17.4155 70.0991ZM36.4501 54.9054C35.5397 57.5091 33.6364 64.1733 32.4778 63.8041C31.4846 63.4933 30.872 58.4416 32.279 53.4483C32.9907 50.9416 34.4968 47.9495 35.3742 46.7841C36.7976 44.9187 38.3701 44.2966 38.7506 45.055C39.2309 46.0458 37.0127 53.2733 36.4501 54.9054ZM52.1577 63.7262C51.7769 63.9595 51.413 64.115 51.2473 63.9983C51.1315 63.9204 51.413 63.6095 51.413 63.6095C51.413 63.6095 53.3827 61.1229 54.1604 59.9958C54.6076 59.3354 55.1369 58.5583 55.6998 57.6837V57.9362C55.6998 60.9091 53.2499 62.9104 52.1574 63.7262H52.1577ZM64.2735 60.4816C63.992 60.2483 64.0417 59.4712 64.9852 57.0425C65.3494 56.0904 66.2098 54.4975 67.6832 52.9625C67.8486 53.5841 67.9647 54.1866 67.948 54.75C67.9313 58.5 65.6475 59.8987 64.2735 60.4816Z" fill="#DBBA8F"/>
</g>
<defs>
<clipPath id="clip0_552_3930">
<rect width="90.8738" height="80" fill="white"/>
</clipPath>
</defs>
</g>

<g id="styled-components">
<path d="M54.0467 22.5391L53.7967 23.8424C53.41 26.3124 53.55 27.0191 54.61 27.9357L55.6333 28.7824L54.5733 33.5091C53.94 36.3291 53.1633 38.6924 52.67 39.4691C52.2467 40.1391 51.7533 41.1257 51.6467 41.6557C51.47 42.2891 50.87 42.9257 49.9533 43.4891C49.1433 43.9491 47.5533 45.1824 46.4267 46.1724C45.5267 46.9824 44.9067 47.4791 44.57 47.6924L43.47 48.5624C43.1167 49.1291 42.9167 49.5857 42.84 49.9324C42.7633 50.2891 42.8067 50.5257 42.92 50.6991C43.03 50.8657 43.22 50.9824 43.48 51.0557C43.7878 51.1279 44.1046 51.1537 44.42 51.1324C45.1336 51.0836 45.8398 50.9585 46.5267 50.7591C46.76 50.6957 46.9433 50.6357 47.1033 50.5824C47.35 50.2791 47.92 49.7057 48.93 48.7091C51.61 46.0657 52.6333 44.6191 51.5767 45.0091C51.1867 45.1491 51.3633 44.7957 52.0333 44.0891C53.4467 42.7124 54.2567 40.6324 55.95 34.1091C57.29 28.9591 57.29 28.8857 58.2767 28.8857C58.74 28.8857 60.05 28.9657 60.05 28.9657V22.5391H57.0433H54.0467ZM66.8433 33.0891C66.63 33.0891 66.2767 33.4091 66.0667 33.7624C65.68 34.3957 66.1367 34.7824 71.9567 38.4157C75.4133 40.6057 78.2 42.4724 78.13 42.6157C78.06 42.7191 75.2367 44.5557 71.8533 46.6724C65.7133 50.4791 65.68 50.5157 66.2433 51.2924C66.95 52.2091 66.2433 52.5257 74.2133 47.5524L80 43.8491V41.0624L73.5433 37.0757C70.0533 34.8891 67.02 33.1257 66.8433 33.0891ZM13.2267 33.4791C13.05 33.4791 10.0167 35.2791 6.52667 37.4291L0 41.4157V44.2024L6.49 48.2591C10.09 50.4791 13.1233 52.3157 13.2633 52.3157C13.4033 52.3157 13.6867 51.9957 13.97 51.6091C14.3933 50.9391 14.0367 50.6557 8.07667 46.8824C2.4 43.3191 1.8 42.8257 2.36667 42.4391C2.72 42.1924 5.4 40.5324 8.29333 38.7357C14.89 34.6791 14.5367 34.9591 14.0067 34.1124C13.7967 33.7624 13.44 33.4457 13.23 33.4791H13.2267ZM42.1733 33.5557C41.2 33.5491 39.1067 35.0324 32.84 40.1491C32.57 40.7924 32.5467 41.2357 32.67 41.5224C32.75 41.7191 32.8967 41.8557 33.1 41.9557C33.3 42.0557 33.56 42.1157 33.8467 42.1391C34.4167 42.1891 35.09 42.0991 35.6333 41.9924L36 41.9091C36.1255 41.7408 36.2903 41.6057 36.48 41.5157C36.8667 41.3024 38.49 39.8224 40.1133 38.2357C42.97 35.3424 43.64 34.0357 42.4767 33.6124C42.3812 33.5744 42.276 33.5552 42.1733 33.5557ZM49.4933 35.5657C48.6367 35.5891 47.0933 36.5824 44.45 38.6924C43.1233 39.7691 42.2833 40.3491 41.8333 40.4691L40.0867 41.8491C39.43 43.0491 39.3333 43.7924 39.5067 44.2024C39.5501 44.3035 39.613 44.3951 39.692 44.4717C39.7709 44.5484 39.8643 44.6087 39.9667 44.6491C40.2213 44.7496 40.4929 44.8005 40.7667 44.7991C41.4209 44.7921 42.0713 44.6968 42.7 44.5157C43.0277 44.4278 43.3513 44.3255 43.67 44.2091L43.7667 44.1691L43.9433 44.0757C44.2767 43.6457 45.0433 42.8357 46.0033 41.9024C49.0367 38.9757 50.5867 36.8957 50.27 36.1191C50.1267 35.7424 49.88 35.5524 49.4933 35.5657ZM41.4133 39.1657C41.1667 39.1924 40.6133 39.6191 39.6167 40.4924C38.1767 41.7657 36.6067 42.4991 36.0633 42.1724C35.9371 42.2009 35.8104 42.2276 35.6833 42.2524C35.13 42.3624 34.44 42.4524 33.8233 42.4024C33.5328 42.3848 33.248 42.3136 32.9833 42.1924C32.7337 42.0783 32.5345 41.8767 32.4233 41.6257C32.3 41.3257 32.3 40.9524 32.44 40.4757L30.2733 42.2557L25.37 46.3124V52.8891L41.4367 40.2324C41.4335 40.0938 41.4515 39.9556 41.49 39.8224C41.6133 39.3757 41.6067 39.1491 41.4133 39.1691V39.1657ZM48.3267 41.2957C48.0833 41.2957 47.6767 41.6391 47.0267 42.3291C46.1433 43.2724 44.7533 44.1857 44.0167 44.3724L43.9033 44.4324C43.7824 44.4823 43.6601 44.529 43.5367 44.5724C43.3367 44.6391 43.0767 44.7191 42.7767 44.7991C42.1767 44.9624 41.43 45.1124 40.7633 45.0957C40.449 45.0953 40.1378 45.0342 39.8467 44.9157C39.5723 44.8026 39.3524 44.5876 39.2333 44.3157C39.04 43.8524 39.1167 43.2024 39.54 42.2791L25.3667 53.4424V57.4591H31.5933L44.8 47.0857C45.1433 46.7057 45.66 46.1857 46.3567 45.5357C48.2233 43.8057 48.6467 43.2091 48.6467 42.3257C48.6467 41.6391 48.57 41.2924 48.3267 41.2924V41.2957ZM51.47 47.7957L50.34 48.9224C49.7067 49.5224 48.5767 50.2624 47.8033 50.5791L47.65 50.6457L47.64 50.6624L47.6067 50.6957C47.5767 50.7191 47.5633 50.7224 47.54 50.7324C47.2313 50.8492 46.9177 50.9527 46.6 51.0424C45.8937 51.248 45.1673 51.3765 44.4333 51.4257C44.0863 51.448 43.7379 51.4176 43.4 51.3357C43.1067 51.2712 42.8478 51.1001 42.6733 50.8557C42.5133 50.6091 42.4667 50.2791 42.5567 49.8724C42.6283 49.5829 42.7346 49.3031 42.8733 49.0391L32.2167 57.4591H46.39L48.0833 55.5191C50.41 52.8057 51.47 50.8657 51.47 49.2057V47.7957Z" fill="#DBBA8F"/>
</g>

<g id="typescript">
<g clip-path="url(#clip0_552_3870)">
<rect x="12.8594" y="22.8555" width="62.8572" height="57.1428" fill="#A12A30"/>
<path d="M3.75 0C1.67333 0 0 1.67333 0 3.75V76.25C0 78.3267 1.67333 80 3.75 80H76.25C78.3267 80 80 78.3267 80 76.25V3.75C80 1.67333 78.3267 0 76.25 0H3.75ZM61.6267 32.5C63.6667 32.5 65.4733 32.6233 67.05 32.87C68.5371 33.0928 69.9964 33.4727 71.4033 34.0033V42.1967C70.728 41.7296 70.0104 41.3267 69.26 40.9933C68.4861 40.6451 67.6872 40.3554 66.87 40.1267C65.322 39.6953 63.7236 39.4711 62.1167 39.46C61.1167 39.46 60.2067 39.5533 59.3867 39.7467C58.6558 39.903 57.9547 40.1753 57.31 40.5533C56.7433 40.9 56.31 41.3167 56 41.8C55.6882 42.2872 55.526 42.855 55.5333 43.4333C55.5333 44.0867 55.71 44.6767 56.0533 45.1967C56.4 45.7167 56.8933 46.21 57.53 46.6767C58.1667 47.1433 58.94 47.5967 59.85 48.0433C60.76 48.4933 61.79 48.9567 62.9367 49.43C64.5033 50.0867 65.91 50.7867 67.1567 51.5233C68.4033 52.2633 69.4733 53.1 70.3667 54.0333C71.26 54.9633 71.94 56.0267 72.4133 57.2233C72.8867 58.42 73.1267 59.81 73.1267 61.4C73.1267 63.59 72.71 65.4333 71.8833 66.92C71.0756 68.3862 69.9165 69.629 68.51 70.5367C66.994 71.498 65.3136 72.1715 63.5533 72.5233C61.6667 72.9233 59.6767 73.1233 57.5867 73.1233C55.5297 73.1324 53.4763 72.9493 51.4533 72.5767C49.7031 72.2739 48.0056 71.7205 46.4133 70.9333V62.1667C49.4259 64.7304 53.2476 66.1471 57.2033 66.1667C58.3133 66.1667 59.2833 66.0667 60.11 65.8667C60.94 65.6667 61.63 65.3867 62.1867 65.0333C62.74 64.6733 63.1533 64.2533 63.43 63.7667C63.7358 63.2 63.8749 62.5584 63.8312 61.916C63.7876 61.2736 63.563 60.6567 63.1833 60.1367C62.6881 59.4813 62.0823 58.9173 61.3933 58.47C60.5388 57.9036 59.6391 57.4086 58.7033 56.99C57.5941 56.4835 56.475 55.9989 55.3467 55.5367C52.2867 54.26 50.0067 52.6967 48.5033 50.8533C47.0033 49.01 46.25 46.78 46.25 44.17C46.25 42.1233 46.66 40.3667 47.48 38.8967C48.3 37.4267 49.4133 36.2167 50.8267 35.2667C52.3215 34.2805 53.9811 33.5704 55.7267 33.17C57.6599 32.7142 59.6404 32.4893 61.6267 32.5ZM11.25 33.1267H43.1267V40.3467H31.6867V72.5H22.63V40.3467H11.25V33.1267Z" fill="#DBBA8F"/>
</g>
<defs>
<clipPath id="clip0_552_3870">
<rect width="80" height="80" fill="white"/>
</clipPath>
</defs>
</g>

<g id="vscode">
<path d="M72.5234 12.5753L58.1084 5.63531C57.2943 5.2428 56.3783 5.11327 55.4873 5.26468C54.5964 5.41609 53.7746 5.84093 53.1359 6.48031L5.94836 49.5003C5.37584 50.0198 5.03313 50.7455 4.99562 51.5176C4.95812 52.2898 5.22888 53.0453 5.74836 53.6178C5.81086 53.6853 5.87336 53.7503 5.94086 53.8103L9.79336 57.3103C10.2968 57.7685 10.9448 58.0359 11.6248 58.066C12.3048 58.0961 12.9739 57.8871 13.5159 57.4753L70.3534 14.3753C70.7827 14.0495 71.2944 13.8501 71.8309 13.7993C72.3675 13.7486 72.9075 13.8487 73.3902 14.0882C73.873 14.3278 74.2793 14.6973 74.5634 15.1553C74.8475 15.6132 74.9981 16.1414 74.9984 16.6803V16.5128C74.9983 15.6901 74.766 14.884 74.3282 14.1875C73.8903 13.4909 73.2647 12.9321 72.5234 12.5753Z" fill="#DBBA8F"/>
<path d="M72.5234 67.4263L58.1084 74.3688C57.2941 74.7602 56.3783 74.8892 55.4876 74.7378C54.5969 74.5864 53.7752 74.1623 53.1359 73.5238L5.94836 30.5013C5.37584 29.9818 5.03313 29.2562 4.99562 28.484C4.95812 27.7118 5.22888 26.9564 5.74836 26.3838C5.81086 26.3163 5.87336 26.2513 5.94086 26.1913L9.79336 22.6913C10.2973 22.2312 10.9468 21.9627 11.6284 21.9325C12.3101 21.9024 12.9808 22.1125 13.5234 22.5263L70.3534 65.6263C70.7827 65.9521 71.2944 66.1516 71.8309 66.2023C72.3675 66.253 72.9075 66.153 73.3902 65.9134C73.873 65.6739 74.2793 65.3043 74.5634 64.8464C74.8475 64.3884 74.9981 63.8603 74.9984 63.3213V63.5013C74.9957 64.3219 74.7621 65.1251 74.3245 65.8192C73.8868 66.5133 73.2626 67.0702 72.5234 67.4263Z" fill="#DBBA8F"/>
<path d="M58.1075 74.3684C57.2932 74.7598 56.3775 74.8888 55.4868 74.7374C54.596 74.586 53.7743 74.1618 53.135 73.5234C53.494 73.8778 53.9496 74.1183 54.4447 74.2148C54.9398 74.3113 55.4524 74.2595 55.9182 74.066C56.384 73.8725 56.7823 73.5458 57.0633 73.1268C57.3442 72.7079 57.4953 72.2153 57.4975 71.7109V8.29095C57.4979 7.78417 57.3479 7.28867 57.0665 6.86721C56.7851 6.44576 56.3849 6.11731 55.9166 5.92348C55.4484 5.72965 54.9332 5.67916 54.4362 5.7784C53.9392 5.87764 53.4829 6.12215 53.125 6.48095C53.7638 5.8418 54.5854 5.41694 55.4763 5.26511C56.3671 5.11328 57.283 5.242 58.0975 5.63345L72.51 12.5634C73.2537 12.9184 73.8819 13.4765 74.322 14.1732C74.7622 14.8699 74.9963 15.6769 74.9975 16.5009V63.5009C74.9977 64.3244 74.7652 65.1311 74.3269 65.8282C73.8886 66.5253 73.2622 67.0843 72.52 67.4409L58.1075 74.3684Z" fill="#DBBA8F"/>
</g>

<g id="webpack">
<path d="M8 55.9987V23.9987V55.9987ZM8 55.9987L40 74.6654L8 55.9987ZM8 55.9987L26.6667 47.9987L8 55.9987ZM8 23.9987L40 5.33203L8 23.9987ZM8 23.9987L40 39.9987L8 23.9987ZM40 5.33203L72 23.9987L40 5.33203ZM40 5.33203V23.9987V5.33203ZM72 23.9987V55.9987V23.9987ZM72 23.9987L40 39.9987L72 23.9987ZM72 55.9987L40 74.6654L72 55.9987ZM72 55.9987L53.3333 47.9987L72 55.9987ZM40 74.6654V39.9987V74.6654ZM40 23.9987L26.6667 31.9987V47.9987M40 23.9987L53.3333 31.9987V47.9987M26.6667 47.9987L40 55.9987L53.3333 47.9987" fill="#A12A30"/>
<path d="M8 55.9987V23.9987M8 55.9987L40 74.6654M8 55.9987L26.6667 47.9987M8 23.9987L40 5.33203M8 23.9987L40 39.9987M40 74.6654L72 55.9987M40 74.6654V39.9987M26.6667 47.9987V31.9987L40 23.9987M26.6667 47.9987L40 55.9987L53.3333 47.9987M40 5.33203L72 23.9987M40 5.33203V23.9987M40 39.9987L72 23.9987M72 23.9987V55.9987M40 23.9987L53.3333 31.9987V47.9987M72 55.9987L53.3333 47.9987" stroke="#DBBA8F" stroke-width="4"/>
</g>

<g id="css">
<path d="M14.7556 68.0025L9.14062 5H70.8606L65.2381 67.9925L39.9631 75L14.7556 68.0025Z" fill="#DBBA8F"/>
<path d="M40 32.9798H50.225L50.93 25.0673H40V17.3398H59.375L59.19 19.4123L57.2925 40.7073H40V32.9798Z" fill="#A12A30"/>
<path d="M40.0491 53.0439L40.0141 53.0539L31.4091 50.7289L30.8591 44.5664H23.1016L24.1841 56.6989L40.0116 61.0939L40.0491 61.0839V53.0439Z" fill="#A12A30"/>
<path d="M49.5709 40.3789L48.6409 50.7264L40.0234 53.0514V61.0914L55.8634 56.7014L55.9809 55.3964L57.3234 40.3789H49.5709Z" fill="#A12A30"/>
<path d="M40.0294 17.3398V25.0673H21.3644L21.2094 23.3298L20.8569 19.4123L20.6719 17.3398H40.0294ZM40.0019 32.9798V40.7073H31.5044L31.3494 38.9698L30.9994 35.0523L30.8144 32.9798H40.0019Z" fill="#A12A30"/>
</g>

<!--                Контакты               -->

<g id="githubaccount">
<g clip-path="url(#clip0_552_3999)">
<path d="M6.60449 0.416347C7.50859 0.606684 8.61431 1.08299 9.94509 1.92089L10.059 1.99262L10.1903 1.96278C12.6184 1.41094 15.1566 1.41094 17.4712 1.96203L17.6073 1.99442L17.7243 1.91788C19.0013 1.08293 20.0954 0.607237 21.0169 0.416578C21.6338 0.288955 22.0829 0.301261 22.4198 0.385477C22.6365 0.458703 22.7854 0.607648 22.8656 0.848248C23.4103 2.26545 23.5178 3.66257 23.1949 5.0618L23.159 5.21723L23.26 5.34068C24.2324 6.52919 24.7623 8.03496 24.7623 9.63684C24.7623 14.7951 22.4821 17.1 18.4806 18.1004L18.1401 18.1855L18.2511 18.5184C18.4568 19.1356 18.5721 19.8847 18.5721 20.5541V24.8309C18.5721 25.3267 18.2674 25.6314 17.7716 25.6314C17.2758 25.6314 16.9711 25.3267 16.9711 24.8309V20.4415C17.0863 19.5397 16.7742 18.7595 16.0881 18.0733C15.8407 17.8259 15.7801 17.5431 15.9036 17.3579L15.9484 17.2564C16.01 17.0104 16.2584 16.8241 16.6363 16.6981C20.9524 16.2594 23.1613 14.3965 23.1613 9.63684C23.1613 8.29099 22.6631 6.98317 21.7286 5.9319C21.5115 5.71399 21.4698 5.42239 21.5689 5.12511C21.9114 4.21234 21.9414 3.25412 21.6884 2.24233L21.6133 1.9417L21.3094 2.00247C20.5393 2.15649 19.5647 2.61512 18.2619 3.51708C18.1109 3.66061 17.9181 3.67814 17.6493 3.58852C15.3356 2.92719 12.8279 2.89412 10.5065 3.48574L10.1415 3.58435C9.84672 3.68229 9.62276 3.66363 9.39814 3.51388C8.23828 2.64336 7.21045 2.1735 6.35533 2.00247L6.05145 1.9417L5.97629 2.24233C5.72335 3.25412 5.75329 4.21234 6.09983 5.13645C6.18197 5.47271 6.16194 5.71414 6.04651 5.83696L5.93613 5.9319C5.00167 6.98317 4.50345 8.29099 4.50345 9.63684C4.50345 14.3965 6.71235 16.2594 11.0977 16.713C11.4044 16.7148 11.6328 16.9224 11.7163 17.2564C11.7984 17.5848 11.7256 17.9243 11.5767 18.0733C10.9725 18.6775 10.6936 19.421 10.6936 20.329V24.7184C10.6936 25.2142 10.389 25.5189 9.89315 25.5189C9.39735 25.5189 9.09267 25.2142 9.09267 24.7184V22.4214L8.71424 22.4845C6.6446 22.8294 5.26532 22.2859 4.02441 21.0052L3.88181 20.8542C3.67021 20.6244 3.6058 20.5474 3.16666 20.0106L2.87286 19.6452C2.7081 19.4427 2.64502 19.3742 2.52591 19.2551C2.274 19.0031 2.0322 18.8447 1.75591 18.7756C1.34841 18.6938 1.05196 18.2087 1.191 17.8611C1.28005 17.4416 1.70857 17.1554 2.04793 17.2322L2.11913 17.2543C3.00597 17.5217 3.49496 17.9408 4.46915 19.0774C5.70591 20.7797 6.65503 21.2873 8.82848 20.8733L9.09267 20.823V20.4415C9.09267 19.7626 9.21006 19.0289 9.40707 18.5364L9.55017 18.1786L9.17341 18.0979C5.22816 17.2525 2.90248 14.7418 2.90248 9.74938C2.90248 8.14751 3.43229 6.64173 4.4047 5.45323L4.51237 5.32163L4.46566 5.15814C4.03762 3.66003 4.14202 2.27672 4.78589 0.881668C4.87933 0.607648 5.02828 0.458703 5.26888 0.378503C5.58308 0.30094 6.00011 0.289109 6.60449 0.416347Z" fill="#A12A30"/>
</g>
<defs>
<clipPath id="clip0_552_3999">
<rect width="26" height="26" fill="white"/>
</clipPath>
</defs>
</g>

<g id="letter">
<g clip-path="url(#clip0_552_3994)">
<path d="M0 3.68359V4.67636V21.3242V22.3169H26V21.3242V4.67636V3.68359H0ZM15.8708 13.2447L13.5109 15.6159C13.224 15.8824 12.7751 15.8819 12.5004 15.6271L10.1287 13.2447L10.1495 13.2243L1.58037 4.55026H24.4253L15.85 13.2247L15.8708 13.2447ZM8.89373 13.2312L0.866667 20.9541V5.16689L8.89373 13.2312ZM9.50473 13.8453L11.898 16.2498C12.2053 16.5363 12.5996 16.6801 12.9957 16.6801C13.3956 16.6801 13.7973 16.5332 14.1141 16.2381L16.4957 13.8453L24.3984 21.4503H1.59727L9.50473 13.8453ZM17.1067 13.2317L25.1333 5.16646V20.9541L17.1067 13.2317Z" fill="#A12A30" stroke="#A12A30"/>
</g>
<defs>
<clipPath id="clip0_552_3994">
<rect width="26" height="26" fill="white"/>
</clipPath>
</defs>
</g>

<g id="mobile">
<g clip-path="url(#clip0_552_3982)">
<path d="M20.0443 21.125H5.96094" stroke="#A12A30" stroke-linecap="round" stroke-linejoin="round"/>
<path d="M12.9974 23.0195C13.0692 23.0195 13.1381 23.0481 13.1889 23.0989C13.2397 23.1496 13.2682 23.2185 13.2682 23.2904C13.2682 23.3622 13.2397 23.4311 13.1889 23.4819C13.1381 23.5327 13.0692 23.5612 12.9974 23.5612C12.9256 23.5612 12.8567 23.5327 12.8059 23.4819C12.7551 23.4311 12.7266 23.3622 12.7266 23.2904C12.7266 23.2185 12.7551 23.1496 12.8059 23.0989C12.8567 23.0481 12.9256 23.0195 12.9974 23.0195Z" stroke="#A12A30" stroke-linecap="round" stroke-linejoin="round"/>
<circle cx="13.0026" cy="23.0221" r="0.541667" fill="#A12A30"/>
<path d="M17.8776 0.542969H8.1276C6.93099 0.542969 5.96094 1.51302 5.96094 2.70964V23.293C5.96094 24.4896 6.93099 25.4596 8.1276 25.4596H17.8776C19.0742 25.4596 20.0443 24.4896 20.0443 23.293V2.70964C20.0443 1.51302 19.0742 0.542969 17.8776 0.542969Z" stroke="#A12A30" stroke-width="2" stroke-linecap="round" stroke-linejoin="round"/>
</g>
<defs>
<clipPath id="clip0_552_3982">
<rect width="26" height="26" fill="white"/>
</clipPath>
</defs>
</g>

<g id="telegram">
<path d="M23.219 3.53008C23.0511 3.38502 22.8467 3.28869 22.6279 3.25153C22.4092 3.21438 22.1845 3.23782 21.9781 3.31932L3.23402 10.6831C2.98899 10.7794 2.78172 10.9524 2.64322 11.1762C2.50472 11.4001 2.44244 11.6628 2.46571 11.9251C2.48897 12.1873 2.59652 12.4349 2.77227 12.6309C2.94802 12.827 3.18252 12.9608 3.44066 13.0124L8.52836 14.03V20.3099C8.52582 20.5515 8.59628 20.7883 8.73052 20.9892C8.86475 21.19 9.05652 21.3457 9.28071 21.4358C9.43089 21.4987 9.59203 21.5313 9.75485 21.5317C9.91396 21.5312 10.0714 21.4991 10.218 21.4373C10.3646 21.3755 10.4975 21.2852 10.6089 21.1716L13.5132 18.2673L17.7985 22.0384C18.0193 22.2345 18.3043 22.3429 18.5996 22.3433C18.728 22.3431 18.8556 22.3229 18.9777 22.2832C19.1791 22.2194 19.3603 22.1038 19.5031 21.9481C19.6459 21.7923 19.7453 21.6019 19.7915 21.3957L23.6117 4.72592C23.6616 4.50973 23.6513 4.28402 23.5821 4.07323C23.5129 3.86244 23.3873 3.67461 23.219 3.53008ZM3.27503 11.8532C3.26492 11.7655 3.28471 11.6769 3.33119 11.6018C3.37767 11.5266 3.44813 11.4694 3.53117 11.4393L20.713 4.6892L8.84039 13.2638L3.6 12.2158C3.51295 12.2007 3.43352 12.1567 3.37455 12.0909C3.31558 12.0252 3.28052 11.9414 3.27503 11.8532ZM10.0343 20.5971C9.97753 20.654 9.90515 20.6927 9.82635 20.7083C9.74755 20.724 9.66587 20.716 9.59164 20.6852C9.51741 20.6545 9.45396 20.6024 9.40933 20.5356C9.36469 20.4688 9.34086 20.3903 9.34086 20.3099V14.5956L12.902 17.7295L10.0343 20.5971ZM22.8197 4.54442L20.9096 12.8793L18.9996 21.2142C18.9838 21.2827 18.9506 21.3461 18.903 21.3979C18.8554 21.4498 18.7952 21.4884 18.7282 21.51C18.6613 21.5316 18.5898 21.5355 18.5209 21.5212C18.452 21.5068 18.388 21.4749 18.3352 21.4284L9.58515 13.7283L22.7541 4.21747C22.7887 4.26361 22.8126 4.31693 22.8239 4.3735C22.8353 4.43007 22.8339 4.48847 22.8197 4.54442Z" fill="#A12A30" stroke="#A12A30"/>
</g>
</svg>