<svg width="26" height="26" viewBox="0 0 26 26" fill="none" xmlns="http://www.w3.org/2000/svg">
<path d="M23.219 3.53008C23.0511 3.38502 22.8467 3.28869 22.6279 3.25153C22.4092 3.21438 22.1845 3.23782 21.9781 3.31932L3.23402 10.6831C2.98899 10.7794 2.78172 10.9524 2.64322 11.1762C2.50472 11.4001 2.44244 11.6628 2.46571 11.9251C2.48897 12.1873 2.59652 12.4349 2.77227 12.6309C2.94802 12.827 3.18252 12.9608 3.44066 13.0124L8.52836 14.03V20.3099C8.52582 20.5515 8.59628 20.7883 8.73052 20.9892C8.86475 21.19 9.05652 21.3457 9.28071 21.4358C9.43089 21.4987 9.59203 21.5313 9.75485 21.5317C9.91396 21.5312 10.0714 21.4991 10.218 21.4373C10.3646 21.3755 10.4975 21.2852 10.6089 21.1716L13.5132 18.2673L17.7985 22.0384C18.0193 22.2345 18.3043 22.3429 18.5996 22.3433C18.728 22.3431 18.8556 22.3229 18.9777 22.2832C19.1791 22.2194 19.3603 22.1038 19.5031 21.9481C19.6459 21.7923 19.7453 21.6019 19.7915 21.3957L23.6117 4.72592C23.6616 4.50973 23.6513 4.28402 23.5821 4.07323C23.5129 3.86244 23.3873 3.67461 23.219 3.53008ZM3.27503 11.8532C3.26492 11.7655 3.28471 11.6769 3.33119 11.6018C3.37767 11.5266 3.44813 11.4694 3.53117 11.4393L20.713 4.6892L8.84039 13.2638L3.6 12.2158C3.51295 12.2007 3.43352 12.1567 3.37455 12.0909C3.31558 12.0252 3.28052 11.9414 3.27503 11.8532ZM10.0343 20.5971C9.97753 20.654 9.90515 20.6927 9.82635 20.7083C9.74755 20.724 9.66587 20.716 9.59164 20.6852C9.51741 20.6545 9.45396 20.6024 9.40933 20.5356C9.36469 20.4688 9.34086 20.3903 9.34086 20.3099V14.5956L12.902 17.7295L10.0343 20.5971ZM22.8197 4.54442L20.9096 12.8793L18.9996 21.2142C18.9838 21.2827 18.9506 21.3461 18.903 21.3979C18.8554 21.4498 18.7952 21.4884 18.7282 21.51C18.6613 21.5316 18.5898 21.5355 18.5209 21.5212C18.452 21.5068 18.388 21.4749 18.3352 21.4284L9.58515 13.7283L22.7541 4.21747C22.7887 4.26361 22.8126 4.31693 22.8239 4.3735C22.8353 4.43007 22.8339 4.48847 22.8197 4.54442Z" fill="#A12A30" stroke="#A12A30"/>
</svg>
